# xmcd
#
# Track frame offsets:
#	150
#	18675
#	35675
#	50372
#	62400
#	74400
#	89000
#	106050
#	117750
#	133950
#	152500
#	166550
#	181800
#	196600
#	213257
#	228997
#	242572
#	257872
#	270897
#	286730
#
# Disc length: 3991 seconds
#
# Revision: 3
# Processed by: cddbd v1.5.2PL0 Copyright (c) Steve Scherf et al.
# Submitted via: audiograbber 1.83.01
#
DISCID=080f9514
DTITLE=Various Artist - Country Hit Parade [CD1]
DYEAR=1994
DGENRE=Country
TTITLE0=Vince Gill - Pocket Full of Gold
TTITLE1=Kelly Willis - Baby Take a Piece of my Heart
TTITLE2=George Strait - Gone as a Girl Can Get
TTITLE3=The Mavericks - Excuse Me (I Think I've Got a Heartache)
TTITLE4=Marty Stuart - Hillbilly Rock
TTITLE5=Conway Twitty - Don't it Make You Lonely
TTITLE6=Steve Warner - When I could Come Home to You
TTITLE7=Steve Earle - Guitar Town
TTITLE8=McBride and the Ride - Hurry Sundown
TTITLE9=Trisha Yearwood - She's in Love with the Boy
TTITLE10=Mark Chesnutt - Bubba Shot the Jukebox
TTITLE11=Patty Loveless - Jealous Bone
TTITLE12=Tracy Byrd - Why Don't that Telephone Ring
TTITLE13=Mark Collie - Even the Man in the Moon is Crying
TTITLE14=Bellamy Brothers - Cowboy Beat
TTITLE15=David Lee Murphy - Just Once
TTITLE16=Lionel Cartwright - I Watched it All (On My Radio)
TTITLE17=Oak Ridge Boys - No Matter how High
TTITLE18=George Jones - I Don't Need Your Rockin' Chair
TTITLE19=Clinton Gregory - If it Weren't for Country (I'd go Crazy)
EXTD=Corrected
EXTT0=
EXTT1=
EXTT2=
EXTT3=
EXTT4=
EXTT5=
EXTT6=
EXTT7=
EXTT8=
EXTT9=
EXTT10=
EXTT11=
EXTT12=
EXTT13=
EXTT14=
EXTT15=
EXTT16=
EXTT17=
EXTT18=
EXTT19=
PLAYORDER=
